<?xml version="1.0" encoding="UTF-8" standalone="no"?>
<svg
   xmlns:dc="http://purl.org/dc/elements/1.1/"
   xmlns:cc="http://creativecommons.org/ns#"
   xmlns:rdf="http://www.w3.org/1999/02/22-rdf-syntax-ns#"
   xmlns:svg="http://www.w3.org/2000/svg"
   xmlns="http://www.w3.org/2000/svg"
   xmlns:xlink="http://www.w3.org/1999/xlink"
   xmlns:sodipodi="http://sodipodi.sourceforge.net/DTD/sodipodi-0.dtd"
   xmlns:inkscape="http://www.inkscape.org/namespaces/inkscape"
   inkscape:version="1.0 (4035a4fb49, 2020-05-01)"
   sodipodi:docname="Soleux_v2-01.svg"
   xml:space="preserve"
   style="enable-background:new 0 0 513.7 131.5;"
   viewBox="0 0 513.7 131.5"
   y="0px"
   x="0px"
   id="Layer_1"
   version="1.1">
   <path
     style="fill:#525252;fill-opacity:0.995169"
     d="M 60.5,99.9 C 60.4,98.7 59.2,98 56.9,97.8 27,91.1 11.1,86.9 9.1,85.1 3,80.5 0,74.8 0,68 0,58.8 6.4,50.1 19.3,41.8 c 7.1,-3.7 14.1,-5.6 21,-5.6 16.2,0 28.9,7.5 38.3,22.4 l 0.4,3.3 v 0.5 c 0,5 -3,8 -9,8.8 -4,0 -7.7,-2.8 -11.1,-8.5 -5.4,-5.2 -11.5,-7.9 -18.5,-7.9 -9.1,0 -16.2,4.2 -21.3,12.7 l -0.2,0.9 c 0,1.2 2.5,2 7.6,2.4 25.4,6.1 39.4,9.7 42,10.7 7.3,4.8 10.9,10.8 10.9,18.1 v 0.3 c 0,10.1 -7.1,19.2 -21.4,27.3 -6.2,2.8 -12.7,4.2 -19.5,4.2 -14.2,0 -26.1,-6.6 -35.8,-19.8 -1.2,-1.8 -1.9,-3.5 -1.9,-5.1 v -1.9 c 0,-4.8 3.2,-7.5 9.7,-8.2 3.1,0 6.8,3 11.1,9.1 5.2,4.8 11.3,7.3 18.2,7.3 8.3,0 15.1,-3.9 20.5,-11.6 z"
     id="path4"
     inkscape:connector-curvature="0" /><path
     style="fill:#525252;fill-opacity:0.995169"
     d="m 131.5,36.2 c 12.3,0 23.5,4.7 33.4,14 9.5,10 14.2,21.2 14.2,33.7 0,17.9 -8.4,31.9 -25.3,42.1 -7.4,3.7 -14.5,5.6 -21.4,5.6 h -2.7 c -12.9,0 -24.8,-6 -35.8,-18 C 87.1,104 83.7,94.2 83.7,84 c 0,-15.5 6.8,-28.5 20.5,-38.9 8.9,-6 17.9,-8.9 27.3,-8.9 z m -29.2,46.7 v 1.6 c 0,11 5.3,19.6 16,25.6 3.8,1.9 7.8,2.9 12.2,2.9 h 1.9 c 11.4,0 20.1,-5.9 26.2,-17.8 1.4,-3.7 2,-7.3 2,-10.8 v -1.6 c 0,-9.1 -4.2,-16.9 -12.6,-23.2 -4.9,-3.4 -10.5,-5 -16.9,-5 -12.4,0 -21.6,6.5 -27.4,19.6 -0.9,3.2 -1.4,6 -1.4,8.7 z"
     id="path6"
     inkscape:connector-curvature="0" /><path
     style="fill:#525252;fill-opacity:0.995169"
     d="m 196.2,0 h 1.6 c 5.6,1.2 8.4,3.8 8.4,8 v 105.2 h 4.3 c 4.3,0 7.1,2.9 8.3,8.8 v 0.7 c -1,5.9 -4,8.8 -9,8.8 h -12.9 c -4.9,0 -7.9,-3 -9,-9 V 9.7 C 188.5,3.2 191.3,0 196.2,0 Z"
     id="path8"
     inkscape:connector-curvature="0" /><path
     style="fill:#525252;fill-opacity:0.995169"
     d="m 271.6,35.6 c 18.5,0 32.8,8.8 43,26.3 3.5,6.9 5.3,14.4 5.3,22.4 v 1.9 c -1.1,6 -4,9 -8.9,9 h -66.2 c 1.7,5.8 6.5,10.9 14.4,15.1 4.7,1.8 9,2.7 13.1,2.7 4.7,0 10.4,-1.7 17,-5 h 2.8 c 5.5,1.1 8.3,4 8.3,8.7 v 1 c 0,7 -8.8,11.6 -26.3,13.9 h -2.5 c -17.2,0 -31,-8 -41.4,-24.1 -4.2,-7.6 -6.3,-15.6 -6.3,-23.9 0,-17.6 8.3,-31.5 24.9,-41.9 8,-4.1 15.7,-6.1 22.8,-6.1 z M 243.1,76.9 H 301 c 0,-2.2 -2.4,-6.6 -7.3,-13.2 -6.6,-6.2 -13.1,-9.4 -19.5,-9.4 h -3.6 c -9.7,0 -17.6,4.8 -23.9,14.3 -2.1,3.9 -3.4,6.6 -3.6,8.3 z"
     id="path10"
     inkscape:connector-curvature="0" /><path
     style="fill:#525252;fill-opacity:0.995169"
     d="m 405.5,121.8 c -8.3,6.5 -17.5,9.7 -27.5,9.7 h -2.3 c -14.6,0 -27.3,-7.1 -38,-21.4 -5,-7.7 -7.4,-17.2 -7.4,-28.3 V 45.5 c 0.7,-6.7 3.9,-10.1 9.6,-10.1 5.7,1.5 8.6,4.2 8.6,8.3 v 35.5 c 0,14.2 3.9,23.6 11.8,28.3 5.1,3.9 10.7,5.8 16.8,5.8 11.7,0 20.6,-6.1 26.6,-18.2 1.2,-3.9 1.9,-7.9 1.9,-11.9 V 44.4 c 1.2,-6 4.4,-9 9.6,-9 5.8,1.3 8.7,4.3 8.7,8.9 v 78.9 c 0,4.4 -2.9,7.2 -8.7,8.3 h -0.9 c -5.8,-1.1 -8.7,-4 -8.7,-8.9 v -0.8 z"
     id="path12"
     inkscape:connector-curvature="0" /><path
     style="fill:#525252;fill-opacity:0.995169"
     d="m 459.3,80.4 11.5,-14.3 c -3.3,-4.2 -8.3,-10.3 -15.2,-18.4 -4.5,-7 -8.6,-10.4 -12.2,-10.4 -4.9,0 -8,3 -9.2,9.1 l 0.9,3.8 z"
     id="path14"
     inkscape:connector-curvature="0" /><path
     style="fill:#525252;fill-opacity:0.995169"
     d="m 477.5,102.8 16.4,20.2 c 3.6,5.7 7.2,8.5 10.7,8.5 h 0.4 c 5.8,-1 8.7,-3.8 8.7,-8.5 v -1.9 c 0,-1.6 -8.3,-12.4 -24.9,-32.3 z"
     id="path16"
     inkscape:connector-curvature="0" /><path
     style="fill:#525252;fill-opacity:0.995169"
     d="M 488.7,80.4 477.2,66.1 c 3.3,-4.2 8.3,-10.3 15.2,-18.4 4.5,-7 8.6,-10.4 12.2,-10.4 4.9,0 8,3 9.2,9.1 l -0.9,3.8 z"
     id="path18"
     inkscape:connector-curvature="0" /><path
     style="fill:#525252;fill-opacity:0.995169"
     d="M 470.6,102.8 454.1,123 c -3.6,5.7 -7.2,8.5 -10.7,8.5 H 443 c -5.8,-1 -8.7,-3.8 -8.7,-8.5 v -1.9 c 0,-1.6 8.3,-12.4 24.9,-32.3 z"
     id="path20"
     inkscape:connector-curvature="0" /><polygon
     class="st1"
     points="483.7,84.6 473.9,96.8 463.4,84.6 473.9,71.6 "
     id="polygon22"
     style="fill:#f69220" />
     </svg>
